<svg width="19" height="16" viewBox="0 0 19 16" fill="none" xmlns="http://www.w3.org/2000/svg">
<path d="M17.2407 2.46154H14.25L13.5375 0.465934C13.4883 0.32938 13.3981 0.211345 13.2792 0.127951C13.1603 0.0445569 13.0186 -0.000128048 12.8734 2.75611e-07H6.12662C5.82975 2.75611e-07 5.56366 0.186813 5.4647 0.465934L4.75 2.46154H1.75926C0.787269 2.46154 0 3.24835 0 4.21978V14.2418C0 15.2132 0.787269 16 1.75926 16H17.2407C18.2127 16 19 15.2132 19 14.2418V4.21978C19 3.24835 18.2127 2.46154 17.2407 2.46154ZM17.4167 14.2418C17.4167 14.3385 17.3375 14.4176 17.2407 14.4176H1.75926C1.6625 14.4176 1.58333 14.3385 1.58333 14.2418V4.21978C1.58333 4.12308 1.6625 4.04396 1.75926 4.04396H5.86493L6.24097 2.99341L6.74456 1.58242H12.2532L12.7568 2.99341L13.1329 4.04396H17.2407C17.3375 4.04396 17.4167 4.12308 17.4167 4.21978V14.2418ZM9.5 5.45055C7.55602 5.45055 5.98148 7.02418 5.98148 8.96703C5.98148 10.9099 7.55602 12.4835 9.5 12.4835C11.444 12.4835 13.0185 10.9099 13.0185 8.96703C13.0185 7.02418 11.444 5.45055 9.5 5.45055ZM9.5 11.0769C8.33449 11.0769 7.38889 10.1319 7.38889 8.96703C7.38889 7.8022 8.33449 6.85714 9.5 6.85714C10.6655 6.85714 11.6111 7.8022 11.6111 8.96703C11.6111 10.1319 10.6655 11.0769 9.5 11.0769Z" fill="#8F9090"/>
</svg>
