<svg width="20" height="20" viewBox="0 0 20 20" fill="none" xmlns="http://www.w3.org/2000/svg">
<path d="M18.68 11.57L17.83 10.95C17.87 10.63 17.89 10.31 17.89 10C17.89 9.69 17.87 9.37 17.83 9.05L18.68 8.43C19.43 7.88 19.62 6.81 19.11 5.92L18.08 4.14C17.57 3.26 16.54 2.88 15.7 3.26L14.74 3.69C14.23 3.31 13.68 2.99 13.1 2.74L12.99 1.69C12.89 0.759997 12.05 0.0599976 11.04 0.0599976H8.97999C7.95999 0.0599976 7.11999 0.759997 7.02999 1.68L6.91999 2.73C6.32999 2.98 5.77999 3.3 5.27999 3.68L4.31999 3.25C3.46999 2.87 2.43999 3.25 1.93999 4.13L0.909991 5.91C0.399991 6.79 0.589992 7.87 1.33999 8.41L2.18999 9.03C2.14999 9.35 2.12999 9.67 2.12999 9.98C2.12999 10.29 2.14999 10.61 2.18999 10.93L1.33999 11.55C0.589992 12.1 0.399991 13.17 0.909991 14.06L1.93999 15.84C2.44999 16.72 3.46999 17.1 4.31999 16.72L5.27999 16.29C5.78999 16.67 6.33999 16.99 6.91999 17.24L7.02999 18.29C7.12999 19.22 7.96999 19.92 8.97999 19.92H11.04C12.06 19.92 12.9 19.22 12.99 18.3L13.1 17.25C13.69 17 14.24 16.68 14.74 16.3L15.7 16.73C16.55 17.11 17.58 16.73 18.08 15.85L19.11 14.07C19.62 13.19 19.44 12.12 18.68 11.57ZM17.73 13.27L16.7 15.05C16.6 15.23 16.43 15.3 16.35 15.27L14.94 14.64C14.66 14.51 14.33 14.56 14.09 14.76C13.5 15.27 12.82 15.66 12.08 15.92C11.79 16.02 11.58 16.28 11.55 16.59L11.39 18.13C11.38 18.2 11.25 18.32 11.03 18.32H8.96999C8.74999 18.32 8.61999 18.2 8.60999 18.13L8.44999 16.6C8.41999 16.29 8.20999 16.03 7.91999 15.93C7.17999 15.67 6.49999 15.28 5.90999 14.77C5.75999 14.64 5.57999 14.58 5.38999 14.58C5.27999 14.58 5.16999 14.6 5.05999 14.65L3.64999 15.28C3.57999 15.32 3.39999 15.24 3.29999 15.06L2.26999 13.28C2.15999 13.1 2.18999 12.91 2.24999 12.87L3.49999 11.96C3.74999 11.78 3.86999 11.47 3.81999 11.17C3.73999 10.76 3.70999 10.38 3.70999 10.01C3.70999 9.64 3.74999 9.25 3.81999 8.85C3.87999 8.55 3.74999 8.24 3.49999 8.06L2.24999 7.15C2.18999 7.1 2.15999 6.92 2.25999 6.74L3.28999 4.96C3.38999 4.78 3.56999 4.71 3.63999 4.74L5.04999 5.37C5.32999 5.5 5.65999 5.45 5.89999 5.25C6.48999 4.74 7.16999 4.35 7.90999 4.09C8.19999 3.99 8.40999 3.73 8.43999 3.42L8.59999 1.88C8.60999 1.81 8.73999 1.69 8.95999 1.69H11.02C11.24 1.69 11.37 1.81 11.38 1.88L11.54 3.41C11.57 3.72 11.78 3.98 12.07 4.08C12.81 4.34 13.49 4.73 14.08 5.24C14.31 5.44 14.64 5.49 14.93 5.36L16.34 4.73C16.41 4.69 16.58 4.77 16.69 4.95L17.72 6.73C17.82 6.91 17.8 7.09 17.73 7.14L16.48 8.05C16.23 8.23 16.11 8.54 16.16 8.84C16.24 9.25 16.27 9.63 16.27 10C16.27 10.37 16.23 10.76 16.16 11.16C16.1 11.46 16.23 11.77 16.48 11.95L17.73 12.86C17.81 12.91 17.83 13.09 17.73 13.27Z" fill="white"/>
</svg>
